<svg xmlns="http://www.w3.org/2000/svg" viewBox="0 0 32 32">
  <rect width="32" height="32" rx="7" fill="#16273c"/>
  <g fill="#ffffff" transform="translate(3.36 3.36)">
    <path d="M118.938,128.417l-1.826-1.819v-3.164a1.053,1.053,0,0,0-2.106,0v1.051l-2.405-2.4a1.051,1.051,0,0,0-1.489,0l-6.337,6.336a1.053,1.053,0,1,0,1.489,1.489l5.592-5.592,5.592,5.592a1.053,1.053,0,1,0,1.489-1.489" transform="translate(-99.221 -113.569)"/>
    <path d="M86.426,73.79A12.636,12.636,0,1,0,99.061,86.426,12.636,12.636,0,0,0,86.426,73.79m0,2.106a10.529,10.529,0,1,1-7.445,3.077A10.529,10.529,0,0,1,86.426,75.9" transform="translate(-73.79 -73.79)"/>
  </g>
</svg>
